<?xml version="1.0" encoding="utf-8"?>
<!-- Generator: Adobe Illustrator 24.0.2, SVG Export Plug-In . SVG Version: 6.00 Build 0)  -->
<svg version="1.1" id="Capa_1" xmlns="http://www.w3.org/2000/svg" xmlns:xlink="http://www.w3.org/1999/xlink" x="0px" y="0px"
	 viewBox="0 0 479.9 479.9" style="enable-background:new 0 0 479.9 479.9;" xml:space="preserve">
<style type="text/css">
	.st0{fill:#FFFFFF;}
</style>
<g>
	<g>
		<path class="st0" d="M359.9,151c-17.7,0-32,14.3-32,32s14.3,32,32,32s32-14.3,32-32S377.5,151,359.9,151z M359.9,199
			c-8.8,0-16-7.2-16-16s7.2-16,16-16s16,7.2,16,16S368.7,199,359.9,199z"/>
	</g>
</g>
<g>
	<g>
		<path class="st0" d="M359.9,263c-17.7,0-32,14.3-32,32s14.3,32,32,32s32-14.3,32-32S377.5,263,359.9,263z M359.9,311
			c-8.8,0-16-7.2-16-16s7.2-16,16-16s16,7.2,16,16S368.7,311,359.9,311z"/>
	</g>
</g>
<g>
	<g>
		<path class="st0" d="M303.9,207c-17.7,0-32,14.3-32,32s14.3,32,32,32s32-14.3,32-32S321.5,207,303.9,207z M303.9,255
			c-8.8,0-16-7.2-16-16s7.2-16,16-16s16,7.2,16,16S312.7,255,303.9,255z"/>
	</g>
</g>
<g>
	<g>
		<path class="st0" d="M415.9,207c-17.7,0-32,14.3-32,32s14.3,32,32,32s32-14.3,32-32S433.5,207,415.9,207z M415.9,255
			c-8.8,0-16-7.2-16-16s7.2-16,16-16s16,7.2,16,16S424.7,255,415.9,255z"/>
	</g>
</g>
<g>
	<g>
		<path class="st0" d="M183.9,207h-32v-32c0-4.4-3.6-8-8-8h-48c-4.4,0-8,3.6-8,8v32h-32c-4.4,0-8,3.6-8,8v48c0,4.4,3.6,8,8,8h32v32
			c0,4.4,3.6,8,8,8h48c4.4,0,8-3.6,8-8v-32h32c4.4,0,8-3.6,8-8v-48C191.9,210.6,188.3,207,183.9,207z M175.9,255h-32
			c-4.4,0-8,3.6-8,8v32h-32v-32c0-4.4-3.6-8-8-8h-32v-32h32c4.4,0,8-3.6,8-8v-32h32v32c0,4.4,3.6,8,8,8h32V255z"/>
	</g>
</g>
<g>
	<g>
		<path class="st0" d="M360.8,119.1c-0.3,0-0.6-0.1-1-0.1h-240c-0.3,0-0.6,0-1,0.1C52.2,120.2-1.1,175.2,0,241.9
			c1.1,65.9,54.8,118.8,120.7,118.9c31.3,0.1,61.3-12,83.8-33.8h70.7c48.1,46.3,124.6,44.8,170.9-3.3c21.7-22.5,33.8-52.6,33.8-83.8
			C479.7,174,426.8,120.3,360.8,119.1z M359,344.8L359,344.8c-28.1,0.1-55.1-11.2-74.8-31.4c-1.5-1.5-3.6-2.4-5.7-2.4h-77.3
			c-2.1,0-4.2,0.9-5.7,2.4c-40.6,41.3-107,41.9-148.3,1.3s-41.9-107-1.3-148.3c19.5-19.9,46.1-31.2,74-31.4c0.3,0,0.5,0,0.8,0H359
			c0.3,0,0.5,0,0.8,0c57.9,0.7,104.3,48.2,103.6,106.1C462.8,298.5,416.3,344.6,359,344.8z"/>
	</g>
</g>
</svg>
