<?xml version="1.0" encoding="utf-8"?>
<!-- Generator: Adobe Illustrator 24.0.2, SVG Export Plug-In . SVG Version: 6.00 Build 0)  -->
<svg version="1.1"
	 id="svg2" xmlns:cc="http://creativecommons.org/ns#" xmlns:dc="http://purl.org/dc/elements/1.1/" xmlns:rdf="http://www.w3.org/1999/02/22-rdf-syntax-ns#" xmlns:svg="http://www.w3.org/2000/svg"
	 xmlns="http://www.w3.org/2000/svg" xmlns:xlink="http://www.w3.org/1999/xlink" x="0px" y="0px" viewBox="0 0 245.9 238.3"
	 style="enable-background:new 0 0 245.9 238.3;" xml:space="preserve">
<style type="text/css">
	.st0{clip-path:url(#SVGID_2_);}
	.st1{fill-rule:evenodd;clip-rule:evenodd;}
</style>
<g id="g14">
	<g>
		<defs>
			<rect id="SVGID_1_" x="-987" y="-356.2" width="1479.2" height="986.1"/>
		</defs>
		<clipPath id="SVGID_2_">
			<use xlink:href="#SVGID_1_"  style="overflow:visible;"/>
		</clipPath>
		<g id="g16" class="st0">
			<g id="g22" transform="translate(232.7953,76.0836)">
				<path id="path24" d="M-207.5,223c-2,0.6-4.2,1-6.7,1c-2.9,0-5.4-0.4-7.7-1.3c-2.3-0.9-4.3-2.1-5.9-3.7c-1.6-1.6-2.9-3.5-3.8-5.7
					c-0.9-2.2-1.3-4.7-1.3-7.4c0-2.7,0.4-5.2,1.3-7.4c0.9-2.2,2.1-4.1,3.6-5.7c1.6-1.6,3.5-2.8,5.7-3.7c2.2-0.9,4.8-1.3,7.5-1.3
					c1.4,0,2.7,0.1,3.9,0.3c1.2,0.2,2.3,0.5,3.3,0.9c1,0.4,2,0.9,2.8,1.4c0.9,0.6,1.7,1.2,2.5,1.9l-1.4,2.2
					c-0.2,0.3-0.5,0.5-0.8,0.6c-0.3,0.1-0.7,0-1.1-0.2c-0.4-0.2-0.8-0.5-1.4-0.8c-0.5-0.3-1.1-0.6-1.9-1s-1.6-0.6-2.6-0.8
					c-1-0.2-2.2-0.3-3.6-0.3c-2,0-3.8,0.3-5.4,1c-1.6,0.7-3,1.6-4.1,2.8c-1.1,1.2-2,2.7-2.6,4.4c-0.6,1.7-0.9,3.7-0.9,5.8
					c0,2.2,0.3,4.2,1,6c0.6,1.8,1.5,3.3,2.7,4.5c1.2,1.2,2.6,2.2,4.3,2.8c1.7,0.6,3.6,1,5.7,1c0.8,0,1.6-0.1,2.3-0.1
					c0.7-0.1,1.4-0.2,2.1-0.4c0.7-0.2,1.3-0.4,1.9-0.6c0.6-0.3,1.2-0.6,1.9-0.9v-7.8h-5.5c-0.3,0-0.6-0.1-0.8-0.3
					c-0.2-0.2-0.3-0.4-0.3-0.7v-2.7h10.9v13.6C-203.5,221.4-205.4,222.3-207.5,223"/>
			</g>
			<g id="g26" transform="translate(242.6573,80.0329)">
				<path id="path28" d="M-174.4,201.8c0-2.2-0.3-4.1-0.9-5.9s-1.4-3.2-2.5-4.4c-1.1-1.2-2.4-2.1-4-2.8c-1.6-0.6-3.3-1-5.2-1
					c-1.9,0-3.6,0.3-5.2,1c-1.5,0.6-2.9,1.6-4,2.8c-1.1,1.2-1.9,2.7-2.5,4.4c-0.6,1.7-0.9,3.7-0.9,5.9s0.3,4.1,0.9,5.9
					c0.6,1.7,1.4,3.2,2.5,4.4c1.1,1.2,2.4,2.1,4,2.7c1.6,0.6,3.3,1,5.2,1c1.9,0,3.6-0.3,5.2-1c1.6-0.6,2.9-1.6,4-2.7
					c1.1-1.2,1.9-2.7,2.5-4.4S-174.4,204-174.4,201.8 M-169.5,201.8c0,2.7-0.4,5.1-1.3,7.3c-0.8,2.2-2,4.1-3.6,5.7
					c-1.5,1.6-3.4,2.8-5.5,3.7c-2.2,0.9-4.5,1.3-7.1,1.3c-2.6,0-5-0.4-7.1-1.3c-2.1-0.9-4-2.1-5.5-3.7c-1.5-1.6-2.7-3.5-3.6-5.7
					c-0.8-2.2-1.3-4.7-1.3-7.3c0-2.7,0.4-5.1,1.3-7.3c0.8-2.2,2-4.1,3.6-5.7c1.5-1.6,3.4-2.9,5.5-3.8c2.1-0.9,4.5-1.3,7.1-1.3
					c2.6,0,5,0.4,7.1,1.3c2.2,0.9,4,2.1,5.5,3.8c1.5,1.6,2.7,3.5,3.6,5.7C-169.9,196.7-169.5,199.2-169.5,201.8"/>
			</g>
			<g id="g30" transform="translate(251.1349,76.0836)">
				<path id="path32" d="M-146.1,223c-2,0.6-4.2,1-6.7,1c-2.9,0-5.4-0.4-7.7-1.3c-2.3-0.9-4.3-2.1-5.9-3.7c-1.6-1.6-2.9-3.5-3.8-5.7
					c-0.9-2.2-1.3-4.7-1.3-7.4c0-2.7,0.4-5.2,1.3-7.4c0.9-2.2,2.1-4.1,3.6-5.7c1.6-1.6,3.5-2.8,5.7-3.7c2.2-0.9,4.8-1.3,7.5-1.3
					c1.4,0,2.7,0.1,3.9,0.3c1.2,0.2,2.3,0.5,3.3,0.9c1,0.4,2,0.9,2.8,1.4c0.9,0.6,1.7,1.2,2.5,1.9l-1.4,2.2
					c-0.2,0.3-0.5,0.5-0.8,0.6c-0.3,0.1-0.7,0-1.1-0.2c-0.4-0.2-0.8-0.5-1.4-0.8c-0.5-0.3-1.1-0.6-1.9-1s-1.6-0.6-2.6-0.8
					c-1-0.2-2.2-0.3-3.6-0.3c-2,0-3.8,0.3-5.4,1c-1.6,0.7-3,1.6-4.1,2.8c-1.1,1.2-2,2.7-2.6,4.4c-0.6,1.7-0.9,3.7-0.9,5.8
					c0,2.2,0.3,4.2,1,6c0.6,1.8,1.5,3.3,2.7,4.5c1.2,1.2,2.6,2.2,4.3,2.8c1.7,0.6,3.6,1,5.7,1c0.8,0,1.6-0.1,2.3-0.1
					c0.7-0.1,1.4-0.2,2.1-0.4c0.7-0.2,1.3-0.4,1.9-0.6c0.6-0.3,1.2-0.6,1.9-0.9v-7.8h-5.5c-0.3,0-0.6-0.1-0.8-0.3
					c-0.2-0.2-0.3-0.4-0.3-0.7v-2.7h10.9v13.6C-142.1,221.4-144,222.3-146.1,223"/>
			</g>
			<g id="g34" transform="translate(254.3708,76.5819)">
				<path id="path36" d="M-135.2,220.3c0-0.4,0.1-0.8,0.2-1.2c0.2-0.4,0.4-0.7,0.6-1c0.3-0.3,0.6-0.5,1-0.7c0.4-0.2,0.8-0.2,1.2-0.2
					c0.4,0,0.8,0.1,1.2,0.2c0.4,0.2,0.7,0.4,1,0.7c0.3,0.3,0.5,0.6,0.7,1c0.2,0.4,0.2,0.8,0.2,1.2c0,0.4-0.1,0.9-0.2,1.2
					c-0.2,0.4-0.4,0.7-0.7,1c-0.3,0.3-0.6,0.5-1,0.7s-0.8,0.2-1.2,0.2c-0.4,0-0.8-0.1-1.2-0.2s-0.7-0.4-1-0.7
					c-0.3-0.3-0.5-0.6-0.6-1C-135.1,221.2-135.2,220.7-135.2,220.3"/>
			</g>
			<g id="g38" transform="translate(263.3869,77.6408)">
				<path id="path40" d="M-105,214.6c0.3,0,0.5,0.1,0.7,0.3l1.9,2.1c-1.5,1.7-3.2,3-5.3,3.9c-2.1,0.9-4.6,1.4-7.5,1.4
					c-2.5,0-4.9-0.4-6.9-1.3c-2.1-0.9-3.9-2.1-5.3-3.7c-1.5-1.6-2.6-3.5-3.4-5.7c-0.8-2.2-1.2-4.7-1.2-7.4c0-2.7,0.4-5.1,1.3-7.4
					c0.8-2.2,2-4.1,3.6-5.7c1.5-1.6,3.4-2.8,5.5-3.7c2.1-0.9,4.5-1.3,7.1-1.3c2.5,0,4.8,0.4,6.7,1.2c1.9,0.8,3.6,1.9,5.1,3.3
					l-1.6,2.2c-0.1,0.2-0.2,0.3-0.4,0.4c-0.2,0.1-0.4,0.2-0.6,0.2c-0.3,0-0.7-0.2-1.1-0.5c-0.4-0.3-1-0.7-1.7-1.1
					c-0.7-0.4-1.6-0.8-2.6-1.1c-1-0.3-2.3-0.5-3.8-0.5c-1.8,0-3.5,0.3-5,1c-1.5,0.6-2.8,1.6-3.9,2.8c-1.1,1.2-2,2.7-2.6,4.4
					c-0.6,1.7-0.9,3.7-0.9,5.9c0,2.2,0.3,4.2,1,5.9s1.5,3.2,2.6,4.4c1.1,1.2,2.4,2.1,3.9,2.7c1.5,0.6,3.1,0.9,4.8,0.9
					c1.1,0,2-0.1,2.9-0.2c0.8-0.1,1.6-0.3,2.4-0.6c0.7-0.3,1.4-0.6,2-1c0.6-0.4,1.2-0.9,1.8-1.5C-105.6,214.8-105.3,214.6-105,214.6
					"/>
			</g>
			<g id="g42" transform="translate(271.8926,80.0329)">
				<path id="path44" d="M-76.5,201.8c0-2.2-0.3-4.1-0.9-5.9c-0.6-1.7-1.4-3.2-2.5-4.4c-1.1-1.2-2.4-2.1-4-2.8c-1.6-0.6-3.3-1-5.2-1
					c-1.9,0-3.6,0.3-5.2,1c-1.5,0.6-2.9,1.6-4,2.8c-1.1,1.2-1.9,2.7-2.5,4.4c-0.6,1.7-0.9,3.7-0.9,5.9s0.3,4.1,0.9,5.9
					c0.6,1.7,1.4,3.2,2.5,4.4c1.1,1.2,2.4,2.1,4,2.7c1.6,0.6,3.3,1,5.2,1c1.9,0,3.6-0.3,5.2-1c1.6-0.6,2.9-1.6,4-2.7
					c1.1-1.2,1.9-2.7,2.5-4.4C-76.8,206-76.5,204-76.5,201.8 M-71.6,201.8c0,2.7-0.4,5.1-1.3,7.3c-0.8,2.2-2,4.1-3.6,5.7
					c-1.5,1.6-3.4,2.8-5.5,3.7c-2.2,0.9-4.5,1.3-7.1,1.3c-2.6,0-5-0.4-7.1-1.3c-2.1-0.9-4-2.1-5.5-3.7c-1.5-1.6-2.7-3.5-3.6-5.7
					c-0.8-2.2-1.3-4.7-1.3-7.3c0-2.7,0.4-5.1,1.3-7.3c0.8-2.2,2-4.1,3.6-5.7c1.5-1.6,3.4-2.9,5.5-3.8c2.1-0.9,4.5-1.3,7.1-1.3
					c2.6,0,5,0.4,7.1,1.3c2.2,0.9,4,2.1,5.5,3.8c1.5,1.6,2.7,3.5,3.6,5.7C-72,196.7-71.6,199.2-71.6,201.8"/>
			</g>
			<g id="g46" transform="translate(279.1647,78.6173)">
				<path id="path48" d="M-52.2,209.4c0.2,0.4,0.4,0.9,0.5,1.3c0.2-0.4,0.3-0.9,0.5-1.3c0.2-0.4,0.4-0.9,0.6-1.2l12-21.8
					c0.2-0.4,0.4-0.6,0.7-0.7c0.2-0.1,0.6-0.1,1-0.1h3.5V221h-4.2v-26.1c0-0.3,0-0.7,0-1.1c0-0.4,0-0.8,0.1-1.2l-12.2,22.2
					c-0.4,0.7-1,1.1-1.7,1.1H-52c-0.8,0-1.4-0.4-1.7-1.1l-12.4-22.3c0,0.4,0.1,0.9,0.1,1.3c0,0.4,0,0.8,0,1.1V221h-4.2v-35.5h3.5
					c0.4,0,0.8,0,1,0.1c0.2,0.1,0.5,0.3,0.7,0.7l12.3,21.8C-52.6,208.6-52.4,209-52.2,209.4"/>
			</g>
			<g id="g50" transform="translate(243.818,110.3118)">
				<path id="path52" class="st1" d="M-170.6,39.9h-28.6h0c-2.2,0-4,1.8-4,4.1c0,0,0,0,0,0h0v20.4h0l0,0c0,2.2,1.8,4.1,4,4.1h0h3
					h25.6v13.6h-35.7v0c-5.8,0-10.6-4.7-10.6-10.5V36.8c0-5.8,4.7-10.5,10.6-10.5h35.7V39.9z"/>
			</g>
			<g id="g54" transform="translate(246.1925,119.0264)">
				<path id="path56" class="st1" d="M-162.6-6.7c0,5.9-4.8,10.7-10.7,10.7h-45.9V-9.8h38.7h0c2.3,0,4.1-1.9,4.1-4.1v0v-45.6v0
					c0-2.3-1.8-4.1-4.1-4.1h0h-20.7h0c-2.3,0-4.1,1.8-4.1,4.1v0v20.7v0c0,2.3,1.8,4.1,4.1,4.1h0h16.6v13.8h-23.8
					c-5.9,0-10.7-4.8-10.7-10.7v-35.2c0-5.9,4.8-10.7,10.7-10.7h35.2c5.9,0,10.7,4.8,10.7,10.7V-6.7z"/>
			</g>
			<g id="g58" transform="translate(277.2978,100.6138)">
				<path id="path60" class="st1" d="M-58.4,91.8h-13.6V49.6h-9.5h0c-2.2,0-4,1.8-4,4.1v0v38.1h-13.6V49.6h-9.5h0
					c-2.3,0-4.1,1.8-4.1,4.1v0v38.1h-13.6V46.5c0-5.8,4.7-10.5,10.5-10.5h57.5V91.8z"/>
			</g>
			<g id="g62" transform="translate(277.3066,119.0264)">
				<path id="path64" class="st1" d="M-58.4-6.7C-58.4-0.8-63.2,4-69.1,4H-115V-9.8h38.7h0c2.3,0,4.1-1.9,4.1-4.1v0v-45.6v0
					c0-2.3-1.8-4.1-4.1-4.1h0h-20.7h0c-2.3,0-4.1,1.8-4.1,4.1v0v20.7v0c0,2.3,1.8,4.1,4.1,4.1h0h16.6v13.8h-23.8
					c-5.9,0-10.7-4.8-10.7-10.7v-35.2c0-5.9,4.8-10.7,10.7-10.7h35.2c5.9,0,10.7,4.8,10.7,10.7V-6.7z"/>
			</g>
			<g id="g66" transform="translate(258.5686,131.166)">
				<path id="path68" class="st1" d="M-121.2-71.7V-51v0c0,2.3-1.8,4.1-4.1,4.1h0H-146h0c-2.3,0-4.1-1.9-4.1-4.1v0v-20.7v0
					c0-2.3,1.8-4.1,4.1-4.1h0h20.7h0C-123-75.8-121.2-74-121.2-71.7L-121.2-71.7z M-118-89.6h-35.2c-5.9,0-10.7,4.8-10.7,10.7v35.2
					c0,5.9,4.8,10.7,10.7,10.7h35.2c5.9,0,10.7-4.8,10.7-10.7v-35.2C-107.3-84.8-112.1-89.6-118-89.6"/>
			</g>
			<g id="g70" transform="translate(256.022,109.3712)">
				<path id="path72" class="st1" d="M-129.7,44.9v20.4c0,2.2-1.8,4.1-4,4.1c0,0,0,0,0,0v0h-20.4v0c0,0,0,0,0,0c-2.2,0-4-1.8-4-4.1
					V44.9v0c0-2.2,1.8-4.1,4-4.1h0h20.4h0C-131.5,40.8-129.7,42.6-129.7,44.9L-129.7,44.9z M-126.6,27.2h-34.7
					c-5.8,0-10.6,4.7-10.6,10.5v34.7c0,5.8,4.7,10.5,10.6,10.5h34.7c5.8,0,10.5-4.7,10.5-10.5V37.8C-116.1,32-120.8,27.2-126.6,27.2
					"/>
			</g>
			<g id="g74" transform="translate(282.3085,95.1629)">
				<path id="path76" d="M-41.7,120.9c0,3.5-1.4,6.7-3.7,9c-2.3,2.3-5.4,3.7-8.9,3.7h-210.1c-3.5,0-6.6-1.4-8.9-3.7
					c-2.3-2.3-3.7-5.4-3.7-9V-77.3c0-3.5,1.4-6.6,3.7-8.9c2.3-2.3,5.4-3.7,8.9-3.7h210.1c3.5,0,6.6,1.4,8.9,3.7
					c2.3,2.3,3.7,5.4,3.7,8.9V120.9z M-41.7-89.9c-3.2-3.2-7.7-5.2-12.6-5.2h-210.1c-4.9,0-9.4,2-12.6,5.2
					c-3.2,3.2-5.2,7.7-5.2,12.6v198.2c0,4.9,2,9.4,5.2,12.6c3.2,3.2,7.7,5.2,12.6,5.2h210.1c4.9,0,9.4-2,12.6-5.2
					c3.2-3.2,5.2-7.7,5.2-12.6V-77.3C-36.4-82.2-38.5-86.7-41.7-89.9"/>
			</g>
		</g>
	</g>
</g>
</svg>
