<?xml version="1.0" encoding="utf-8"?>
<!-- Generator: Adobe Illustrator 24.0.2, SVG Export Plug-In . SVG Version: 6.00 Build 0)  -->
<svg version="1.1" id="bold" xmlns="http://www.w3.org/2000/svg" xmlns:xlink="http://www.w3.org/1999/xlink" x="0px" y="0px"
	 viewBox="0 0 512 512" style="enable-background:new 0 0 512 512;" xml:space="preserve">
<style type="text/css">
	.st0{fill:#FFFFFF;}
</style>
<path class="st0" d="M391.6,138.7H120.4C54,138.7,0,191.3,0,256s54,117.3,120.4,117.3c34.8,0,68.2-15,91-40.5h89.3
	c22.8,25.5,56.2,40.5,91,40.5C458,373.3,512,320.7,512,256S458,138.7,391.6,138.7L391.6,138.7z M149.3,277.3h-10.7V288
	c0,11.8-9.5,21.3-21.3,21.3S96,299.8,96,288v-10.7H85.3c-11.8,0-21.3-9.6-21.3-21.3s9.5-21.3,21.3-21.3H96V224
	c0-11.8,9.5-21.3,21.3-21.3s21.3,9.6,21.3,21.3v10.7h10.7c11.8,0,21.3,9.6,21.3,21.3S161.1,277.3,149.3,277.3z M384,192
	c11.8,0,21.3,9.6,21.3,21.3s-9.6,21.3-21.3,21.3s-21.3-9.6-21.3-21.3S372.2,192,384,192z M341.3,277.3c-11.8,0-21.3-9.6-21.3-21.3
	s9.6-21.3,21.3-21.3s21.3,9.6,21.3,21.3S353.1,277.3,341.3,277.3z M384,320c-11.8,0-21.3-9.6-21.3-21.3s9.6-21.3,21.3-21.3
	s21.3,9.6,21.3,21.3S395.8,320,384,320z M426.7,277.3c-11.8,0-21.3-9.6-21.3-21.3s9.6-21.3,21.3-21.3S448,244.2,448,256
	S438.4,277.3,426.7,277.3z"/>
</svg>
