<?xml version="1.0" encoding="utf-8"?>
<!-- Generator: Adobe Illustrator 24.0.2, SVG Export Plug-In . SVG Version: 6.00 Build 0)  -->
<svg version="1.1" id="Capa_1" xmlns="http://www.w3.org/2000/svg" xmlns:xlink="http://www.w3.org/1999/xlink" x="0px" y="0px"
	 viewBox="0 0 438.5 438.5" style="enable-background:new 0 0 438.5 438.5;" xml:space="preserve">
<style type="text/css">
	.st0{fill:#FFFFFF;}
</style>
<g>
	<g>
		<path class="st0" d="M219.3,219.3c30.3,0,56.1-10.7,77.5-32.1c21.4-21.4,32.1-47.2,32.1-77.5c0-30.3-10.7-56.1-32.1-77.5
			C275.4,10.7,249.5,0,219.3,0s-56.1,10.7-77.5,32.1c-21.4,21.4-32.1,47.3-32.1,77.5c0,30.3,10.7,56.1,32.1,77.5
			C163.2,208.6,189,219.3,219.3,219.3z"/>
		<path class="st0" d="M419.3,335c-0.7-9.6-2-20-4-31.1c-2-11.1-4.5-21.5-7.6-31c-3-9.5-7.1-18.8-12.3-27.8
			c-5.1-9-11-16.7-17.7-23.1c-6.7-6.4-14.8-11.5-24.4-15.3c-9.6-3.8-20.2-5.7-31.8-5.7c-1.7,0-5.7,2-12,6.1
			c-6.3,4.1-13.4,8.7-21.3,13.7c-7.9,5-18.2,9.6-30.8,13.7c-12.7,4.1-25.4,6.1-38.1,6.1c-12.8,0-25.5-2-38.1-6.1
			c-12.7-4.1-22.9-8.7-30.8-13.7c-7.9-5-15-9.6-21.3-13.7c-6.3-4.1-10.3-6.1-12-6.1c-11.6,0-22.2,1.9-31.8,5.7
			c-9.6,3.8-17.7,8.9-24.4,15.3c-6.7,6.4-12.6,14.1-17.7,23.1c-5.1,9-9.2,18.3-12.3,27.8c-3,9.5-5.6,19.8-7.6,31
			c-2,11.1-3.3,21.5-4,31.1c-0.7,9.6-1,19.5-1,29.6c0,22.8,6.9,40.9,20.8,54.1c13.9,13.2,32.4,19.8,55.4,19.8H344
			c23,0,41.5-6.6,55.4-19.8c13.9-13.2,20.8-31.3,20.8-54.1C420.3,354.5,419.9,344.7,419.3,335z"/>
	</g>
</g>
</svg>
